<?xml version="1.0"?>
<svg xmlns="http://www.w3.org/2000/svg" xmlns:xlink="http://www.w3.org/1999/xlink" width="1080" zoomAndPan="magnify" viewBox="0 0 810 1012.49997" height="1350" preserveAspectRatio="xMidYMid meet" version="1.0" style="background-color:transparent;">
  <defs>
    <clipPath id="fc25c43cc3">
      <path d="M 0.199219 0 L 809.800781 0 L 809.800781 1012 L 0.199219 1012 Z M 0.199219 0 " clip-rule="nonzero"/>
    </clipPath>
    <clipPath id="d06e64cae6">
      <path d="M 31.613281 174.320312 L 656.613281 174.320312 L 656.613281 799.132812 L 31.613281 799.132812 Z M 31.613281 174.320312 " clip-rule="nonzero"/>
    </clipPath>
    <clipPath id="bc74321b18">
      <path d="M 733.441406 346.835938 L 779.699219 346.835938 L 779.699219 375.488281 L 733.441406 375.488281 Z M 733.441406 346.835938 " clip-rule="nonzero"/>
    </clipPath>
    <clipPath id="215a108443">
      <path d="M 31.613281 425.476562 L 418.808594 425.476562 L 418.808594 799.132812 L 31.613281 799.132812 Z M 31.613281 425.476562 " clip-rule="nonzero"/>
    </clipPath>
  </defs>
  <g clip-path="url(#fc25c43cc3)">
    <path fill="none" d="M 0.199219 0 L 809.800781 0 L 809.800781 1012 L 0.199219 1012 Z M 0.199219 0 " fill-opacity="1" fill-rule="nonzero"/>
    <path fill="none" d="M 0.199219 0 L 809.800781 0 L 809.800781 1012 L 0.199219 1012 Z M 0.199219 0 " fill-opacity="1" fill-rule="nonzero"/>
  </g>
  <g clip-path="url(#d06e64cae6)">
    <path fill="#ffc0c8" d="M 57.734375 794.65625 C 51.765625 800.625 42.078125 800.625 36.109375 794.65625 C 30.117188 788.664062 30.117188 778.984375 36.089844 773.015625 C 38.050781 771.054688 103.914062 706.238281 192.054688 619.933594 C 374.511719 441.214844 652.484375 170.367188 656.515625 174.398438 C 659.125 177.007812 546.820312 294.046875 418.789062 425.785156 C 253.117188 596.257812 61.121094 791.273438 57.734375 794.65625 " fill-opacity="1" fill-rule="nonzero"/>
  </g>
  <path fill="#f7da7c" d="M 686.347656 341.105469 L 599.976562 339.996094 L 550.097656 410.519531 C 545.054688 417.636719 534 415.898438 531.410156 407.542969 L 505.769531 325.101562 L 423.285156 299.445312 C 414.929688 296.859375 413.191406 285.808594 420.328125 280.78125 L 490.023438 231.472656 L 490.851562 230.898438 L 489.742188 144.550781 C 489.632812 135.828125 499.597656 130.75 506.601562 135.980469 L 575.832031 187.632812 L 657.632812 159.894531 C 665.917969 157.085938 673.828125 164.992188 671.015625 173.277344 L 643.273438 255.054688 L 649.515625 263.445312 L 694.917969 324.25 C 700.148438 331.253906 695.089844 341.234375 686.347656 341.105469 " fill-opacity="1" fill-rule="nonzero"/>
  <path fill="#eabe5c" d="M 686.347656 341.105469 L 599.976562 339.996094 L 550.097656 410.519531 C 545.054688 417.636719 534 415.898438 531.410156 407.542969 L 505.769531 325.101562 L 423.285156 299.445312 C 414.929688 296.859375 413.191406 285.808594 420.328125 280.78125 L 490.023438 231.472656 C 515.863281 236.09375 530.375 255.777344 546.550781 277.492188 C 569.917969 308.910156 584.375 306.914062 602.710938 288.617188 C 614.710938 276.660156 632.679688 265.753906 649.515625 263.445312 L 694.917969 324.25 C 700.148438 331.253906 695.089844 341.234375 686.347656 341.105469 " fill-opacity="1" fill-rule="nonzero"/>
  <path fill="#f7da7c" d="M 736.609375 113.707031 C 731.253906 119.0625 706.964844 131.988281 702.945312 127.964844 C 698.917969 123.941406 711.84375 99.664062 717.207031 94.308594 C 722.566406 88.949219 731.253906 88.949219 736.609375 94.308594 C 741.96875 99.664062 741.96875 108.351562 736.609375 113.707031 " fill-opacity="1" fill-rule="nonzero"/>
  <path fill="#f7da7c" d="M 482.203125 60.632812 C 484.558594 67.832031 485.117188 95.328125 479.707031 97.097656 C 474.300781 98.867188 458.480469 76.367188 456.121094 69.167969 C 453.765625 61.96875 457.691406 54.21875 464.894531 51.863281 C 472.097656 49.507812 479.847656 53.433594 482.203125 60.632812 " fill-opacity="1" fill-rule="nonzero"/>
  <path fill="#f7da7c" d="M 329.085938 291.070312 C 336.566406 289.855469 363.824219 293.5625 364.734375 299.175781 C 365.648438 304.796875 340.964844 316.933594 333.484375 318.148438 C 326.003906 319.367188 318.957031 314.285156 317.742188 306.808594 C 316.527344 299.332031 321.605469 292.285156 329.085938 291.070312 " fill-opacity="1" fill-rule="nonzero"/>
  <path fill="#f7da7c" d="M 407.535156 172.976562 C 414.648438 175.585938 436.574219 192.195312 434.609375 197.535156 C 432.648438 202.878906 405.183594 201.339844 398.070312 198.726562 C 390.957031 196.113281 387.308594 188.230469 389.921875 181.121094 C 392.535156 174.007812 400.421875 170.363281 407.535156 172.976562 " fill-opacity="1" fill-rule="nonzero"/>
  <path fill="#f7da7c" d="M 600.929688 96.574219 C 600.191406 104.117188 589.644531 129.519531 583.980469 128.964844 C 578.316406 128.410156 572.878906 101.453125 573.617188 93.914062 C 574.351562 86.371094 581.0625 80.855469 588.605469 81.59375 C 596.148438 82.324219 601.664062 89.035156 600.929688 96.574219 " fill-opacity="1" fill-rule="nonzero"/>
  <g clip-path="url(#bc74321b18)">
    <path fill="#f7da7c" d="M 770.242188 348.601562 C 763.039062 346.242188 735.535156 345.6875 733.765625 351.097656 C 731.996094 356.5 754.503906 372.316406 761.707031 374.671875 C 768.90625 377.03125 776.65625 373.105469 779.015625 365.90625 C 781.371094 358.703125 777.441406 350.957031 770.242188 348.601562 " fill-opacity="1" fill-rule="nonzero"/>
  </g>
  <path fill="#f7da7c" d="M 539.746094 501.679688 C 540.960938 494.199219 537.253906 466.949219 531.636719 466.039062 C 526.019531 465.125 513.875 489.800781 512.660156 497.28125 C 511.445312 504.757812 516.523438 511.804688 524.003906 513.019531 C 531.484375 514.234375 538.535156 509.15625 539.746094 501.679688 " fill-opacity="1" fill-rule="nonzero"/>
  <path fill="#f7da7c" d="M 657.871094 423.25 C 655.261719 416.136719 638.644531 394.214844 633.304688 396.179688 C 627.960938 398.140625 629.5 425.601562 632.113281 432.710938 C 634.726562 439.824219 642.613281 443.46875 649.722656 440.859375 C 656.839844 438.242188 660.488281 430.363281 657.871094 423.25 " fill-opacity="1" fill-rule="nonzero"/>
  <path fill="#f7da7c" d="M 734.292969 229.90625 C 726.746094 230.640625 701.339844 241.183594 701.894531 246.847656 C 702.449219 252.507812 729.414062 257.945312 736.957031 257.210938 C 744.496094 256.472656 750.015625 249.765625 749.277344 242.226562 C 748.542969 234.683594 741.835938 229.167969 734.292969 229.90625 " fill-opacity="1" fill-rule="nonzero"/>
  <g clip-path="url(#215a108443)">
    <path fill="#ffa4b3" d="M 57.734375 794.65625 C 51.765625 800.625 42.078125 800.625 36.109375 794.65625 C 30.117188 788.664062 30.117188 778.984375 36.089844 773.015625 C 38.050781 771.054688 103.914062 706.238281 192.054688 619.933594 C 245.90625 583.835938 304.730469 536.304688 366.066406 474.167969 C 384.367188 455.613281 401.949219 439.589844 418.789062 425.785156 C 253.117188 596.257812 61.121094 791.273438 57.734375 794.65625 " fill-opacity="1" fill-rule="nonzero"/>
  </g>
  <path fill="#ffecb6" d="M 569.265625 210.152344 C 567.816406 212.804688 562.53125 213.113281 555.175781 211.003906 C 547.835938 208.910156 538.476562 204.308594 529.359375 197.492188 C 520.25 190.664062 513.203125 182.980469 509.125 176.527344 C 505.035156 170.0625 503.84375 164.90625 505.984375 162.765625 C 508.148438 160.59375 513.175781 161.785156 519.660156 165.023438 C 526.15625 168.277344 534.167969 173.527344 542.585938 179.835938 C 551.015625 186.140625 558.304688 192.347656 563.257812 197.664062 C 568.191406 202.972656 570.742188 207.460938 569.265625 210.152344 " fill-opacity="1" fill-rule="nonzero"/>
  <path fill="#ffecb6" d="M 583.617188 215.414062 C 581.378906 212.699219 582.558594 207.46875 586.921875 201.449219 C 591.253906 195.445312 598.875 188.785156 608.628906 183.75 C 618.390625 178.730469 628.238281 176.40625 635.644531 176.363281 C 643.082031 176.308594 648.023438 178.378906 648.9375 181.777344 C 649.871094 185.242188 646.765625 189.34375 641.515625 193.585938 C 636.242188 197.828125 628.839844 202.304688 620.417969 206.632812 C 612 210.976562 604.054688 214.398438 597.535156 216.230469 C 591.039062 218.039062 585.894531 218.179688 583.617188 215.414062 " fill-opacity="1" fill-rule="nonzero"/>
  <path fill="#f7da7c" d="M 493.804688 285.808594 C 494.085938 292.882812 482.195312 299.105469 467.269531 298.382812 C 452.339844 297.683594 441.089844 290.359375 442.046875 283.34375 C 443 276.277344 454.796875 272.042969 468.492188 272.675781 C 482.1875 273.347656 493.527344 278.683594 493.804688 285.808594 " fill-opacity="1" fill-rule="nonzero"/>
  <path fill="#f7da7c" d="M 544.363281 375.769531 C 540.808594 376.097656 537.300781 372.757812 534.25 367.347656 C 531.195312 361.921875 528.539062 354.429688 526.675781 345.957031 C 524.804688 337.492188 524.066406 329.574219 524.554688 323.367188 C 525.050781 317.175781 526.828125 312.671875 530.191406 311.472656 C 533.523438 310.289062 537.84375 312.726562 541.921875 317.929688 C 545.996094 323.113281 549.753906 331.085938 551.816406 340.421875 C 553.867188 349.753906 553.8125 358.570312 552.296875 364.984375 C 550.78125 371.417969 547.882812 375.445312 544.363281 375.769531 " fill-opacity="1" fill-rule="nonzero"/>
  <path fill="#f7da7c" d="M 665.066406 321.832031 C 663.851562 328.832031 649.644531 332.226562 633.324219 329.410156 C 617.007812 326.59375 604.757812 318.632812 605.964844 311.628906 C 607.175781 304.628906 621.382812 301.234375 637.703125 304.050781 C 654.023438 306.867188 666.273438 314.828125 665.066406 321.832031 " fill-opacity="1" fill-rule="nonzero"/>
</svg>
